<svg xmlns="http://www.w3.org/2000/svg" width="18" height="18" viewBox="0 0 18 18" fill="none">
<path d="M11.6667 4.55556C12.1382 4.55556 12.5903 4.74286 12.9237 5.07625C13.2571 5.40965 13.4444 5.86184 13.4444 6.33333M11.6667 1C13.0812 1 14.4377 1.5619 15.4379 2.5621C16.4381 3.56229 17 4.91885 17 6.33333M2.77778 1.88889H6.33333L8.11111 6.33333L5.88889 7.66667C6.84085 9.59692 8.40308 11.1591 10.3333 12.1111L11.6667 9.88889L16.1111 11.6667V15.2222C16.1111 15.6937 15.9238 16.1459 15.5904 16.4793C15.257 16.8127 14.8048 17 14.3333 17C10.866 16.7893 7.59569 15.3169 5.1394 12.8606C2.68311 10.4043 1.21071 7.13399 1 3.66667C1 3.19517 1.1873 2.74299 1.5207 2.40959C1.8541 2.07619 2.30628 1.88889 2.77778 1.88889Z" stroke="white" stroke-width="2" stroke-linecap="round" stroke-linejoin="round"/>
</svg>