<?xml version="1.0" encoding="utf-8"?>
<!-- Generator: Adobe Illustrator 22.0.0, SVG Export Plug-In . SVG Version: 6.00 Build 0)  -->
<svg version="1.1" id="Слой_1" xmlns="http://www.w3.org/2000/svg" xmlns:xlink="http://www.w3.org/1999/xlink" x="0px" y="0px"
	 viewBox="0 0 100 100" style="enable-background:new 0 0 100 100;" xml:space="preserve">
<style type="text/css">
	.st0{fill:#223C50;}
	.st1{fill:url(#SVGID_1_);}
	.st2{fill:url(#SVGID_2_);}
	.st3{fill:#A9C0D0;}
	.st4{fill:url(#SVGID_3_);}
</style>
<g>
	<circle class="st0" cx="50" cy="50.5" r="35.8"/>
	<g>
		<linearGradient id="SVGID_1_" gradientUnits="userSpaceOnUse" x1="-8.1589" y1="95.8321" x2="56.5911" y2="46.0821">
			<stop  offset="0" style="stop-color:#1570A3"/>
			<stop  offset="1" style="stop-color:#B9D7E4"/>
		</linearGradient>
		<path class="st1" d="M26.2,26.8c2,0,4,0,6.1,0c2.1,0,3.3,1.2,3.3,3.3c0,4,0,7.9,0,11.9c0,0.3-0.1,0.6-0.3,0.8c-2,2-4,3.9-5.9,5.9
			c-0.5,0.5-1,1.1-1.6,1.6c-0.3,0.3-0.3,0.5-0.1,0.8c0.9,1.4,1.8,2.8,2.8,4.2c3.2,4.5,7,8.3,11.2,11.8c2.4,1.9,4.9,3.7,7.6,5.2
			c0.3,0.2,0.5,0.2,0.7-0.1c2.5-2.5,4.9-4.9,7.4-7.4c0.2-0.2,0.4-0.3,0.8-0.3c4,0,8.1,0,12.1,0c1.8,0,2.9,1,3,2.8c0,0.2,0,0.4,0,0.6
			c0,4.1,0,8.1,0,12.2c0,1.2-0.4,2.2-1.5,2.8c-0.5,0.3-1.1,0.4-1.6,0.4c-2.6,0-5.2,0-7.9-0.1c-2.8-0.1-5.4-0.8-8-1.7
			c-3.2-1.1-6.2-2.6-9.1-4.3c-3.9-2.3-7.5-5-10.9-8.1c-5.1-4.7-9.5-10-12.8-16.1c-2.2-4-3.8-8.3-4.4-12.8c-0.2-1.3-0.3-2.7-0.3-4.1
			c0-2.2,0-4.5,0-6.7c0.1-1.4,1.1-2.4,2.5-2.5c0.4,0,0.8,0,1.2,0C22.5,26.8,24.3,26.8,26.2,26.8z"/>
		<g>
			<g>
				<linearGradient id="SVGID_2_" gradientUnits="userSpaceOnUse" x1="89.5085" y1="29.4696" x2="32.0085" y2="54.4696">
					<stop  offset="0" style="stop-color:#F28B6C"/>
					<stop  offset="1" style="stop-color:#C7586B"/>
				</linearGradient>
				<path class="st2" d="M44.3,28.5h40.2c1.1,0,2,1,2,2.3V50c0,1.2-0.9,2.3-2,2.3H49.6l-2,2.3l-2.1-2.3h-1.2c-1.1,0-2-1-2-2.3V30.7
					C42.3,29.5,43.2,28.5,44.3,28.5z"/>
				<g>
					<path class="st3" d="M48.5,34.7h31.3c0.2,0,0.4-0.2,0.4-0.4V34c0-0.2-0.2-0.4-0.4-0.4H48.5c-0.2,0-0.4,0.2-0.4,0.4v0.4
						C48,34.5,48.2,34.7,48.5,34.7z"/>
					<path class="st3" d="M48.5,39.1h31.3c0.2,0,0.4-0.2,0.4-0.4v-0.4c0-0.2-0.2-0.4-0.4-0.4H48.5c-0.2,0-0.4,0.2-0.4,0.4v0.4
						C48,38.9,48.2,39.1,48.5,39.1z"/>
					<path class="st3" d="M48.5,43.5h31.3c0.2,0,0.4-0.2,0.4-0.4v-0.4c0-0.2-0.2-0.4-0.4-0.4H48.5c-0.2,0-0.4,0.2-0.4,0.4v0.4
						C48,43.3,48.2,43.5,48.5,43.5z"/>
					<path class="st3" d="M48.5,47.8h31.3c0.2,0,0.4-0.2,0.4-0.4v-0.4c0-0.2-0.2-0.4-0.4-0.4H48.5c-0.2,0-0.4,0.2-0.4,0.4v0.4
						C48,47.6,48.2,47.8,48.5,47.8z"/>
				</g>
			</g>
		</g>
		<linearGradient id="SVGID_3_" gradientUnits="userSpaceOnUse" x1="3.6754" y1="86.7468" x2="48.6825" y2="52.1661">
			<stop  offset="0" style="stop-color:#1570A3"/>
			<stop  offset="1" style="stop-color:#B9D7E4"/>
		</linearGradient>
		<path class="st4" d="M62.3,83.1c2.6,0.1,5.2,0.1,7.9,0.1c0.5,0,1.1-0.1,1.6-0.4c0.3-0.2,0.5-0.3,0.7-0.6L57.3,64.8
			c-2.5,2.5-5,4.9-7.4,7.4c-0.2,0.2-0.4,0.3-0.7,0.1c-2.7-1.5-5.2-3.3-7.6-5.2c-4.2-3.4-8-7.3-11.2-11.8c-1-1.4-1.8-2.8-2.8-4.2
			c-0.2-0.3-0.2-0.6,0.1-0.8c0.6-0.5,1.1-1.1,1.6-1.6c2-2,3.9-3.9,5.9-5.9c0.2-0.2,0.3-0.5,0.3-0.8L17.7,27.5
			c-0.5,0.4-0.8,1.1-0.8,1.8c-0.1,2.2-0.1,4.5,0,6.7c0,1.4,0.1,2.7,0.3,4.1c0.7,4.6,2.2,8.8,4.4,12.8c3.3,6.1,7.7,11.4,12.8,16.1
			c3.4,3.1,7,5.8,10.9,8.1c2.9,1.7,5.9,3.2,9.1,4.3C56.9,82.3,59.5,83,62.3,83.1z"/>
	</g>
</g>
</svg>
